<svg xmlns="http://www.w3.org/2000/svg" xmlns:xlink="http://www.w3.org/1999/xlink" width="500" zoomAndPan="magnify" viewBox="0 0 375 374.999991" height="500" preserveAspectRatio="xMidYMid meet" version="1.0"><path fill="#b3b3b3" d="M 375 187.503906 C 375 231.34375 360 271.597656 334.796875 303.53125 C 300.4375 347.042969 247.222656 375 187.5 375 C 127.773438 375 74.558594 347.042969 40.203125 303.53125 C 15 271.597656 0 231.34375 0 187.503906 C 0 83.933594 83.933594 0.00390625 187.5 0.00390625 C 291.066406 0.00390625 375 83.933594 375 187.503906 " fill-opacity="1" fill-rule="nonzero"/><path fill="#999999" d="M 334.796875 303.53125 C 300.4375 347.042969 247.222656 375 187.5 375 C 127.773438 375 74.558594 347.042969 40.203125 303.53125 C 46.988281 257.371094 74.945312 218.050781 113.988281 195.882812 C 131.082031 217.609375 157.71875 231.617188 187.5 231.617188 C 217.28125 231.617188 243.917969 217.609375 261.011719 195.882812 C 300.054688 218.050781 328.011719 257.371094 334.796875 303.53125 " fill-opacity="1" fill-rule="nonzero"/><path fill="#999999" d="M 187.5 215.074219 C 210.824219 215.074219 231.726562 204.707031 245.847656 188.328125 C 257.589844 174.761719 264.707031 157.117188 264.707031 137.867188 C 264.707031 95.292969 230.074219 60.660156 187.5 60.660156 C 144.925781 60.660156 110.292969 95.292969 110.292969 137.867188 C 110.292969 157.117188 117.410156 174.761719 129.152344 188.328125 C 143.273438 204.707031 164.171875 215.074219 187.5 215.074219 " fill-opacity="1" fill-rule="nonzero"/></svg>